<svg width="58" height="58" viewBox="0 0 58 58" fill="none" xmlns="http://www.w3.org/2000/svg">
<circle cx="29" cy="29" r="29" fill="white"/>
<path d="M28.3494 27.46C30.3094 27.46 31.9694 28.04 33.3294 29.2C34.7094 30.34 35.3994 31.91 35.3994 33.91C35.3994 35.91 34.7094 37.49 33.3294 38.65C31.9694 39.79 30.3094 40.36 28.3494 40.36C26.7694 40.36 25.3594 39.98 24.1194 39.22C22.8794 38.44 22.0394 37.33 21.5994 35.89L23.3694 34.87C23.6694 35.99 24.2594 36.85 25.1394 37.45C26.0394 38.03 27.1094 38.32 28.3494 38.32C29.7894 38.32 30.9694 37.94 31.8894 37.18C32.8294 36.4 33.2994 35.31 33.2994 33.91C33.2994 32.51 32.8294 31.43 31.8894 30.67C30.9694 29.89 29.7894 29.5 28.3494 29.5H22.6494L23.3994 19H34.6494V20.98H25.2594L24.8094 27.46H28.3494Z" fill="black"/>
</svg>
