<svg width="75" height="75" viewBox="0 0 75 75" fill="none" xmlns="http://www.w3.org/2000/svg">
<circle cx="37.5" cy="37.5" r="37" stroke="url(#paint0_linear_3_31)"/>
<circle cx="37" cy="38" r="29" fill="white"/>
<path d="M36.3494 36.46C38.3094 36.46 39.9694 37.04 41.3294 38.2C42.7094 39.34 43.3994 40.91 43.3994 42.91C43.3994 44.91 42.7094 46.49 41.3294 47.65C39.9694 48.79 38.3094 49.36 36.3494 49.36C34.7694 49.36 33.3594 48.98 32.1194 48.22C30.8794 47.44 30.0394 46.33 29.5994 44.89L31.3694 43.87C31.6694 44.99 32.2594 45.85 33.1394 46.45C34.0394 47.03 35.1094 47.32 36.3494 47.32C37.7894 47.32 38.9694 46.94 39.8894 46.18C40.8294 45.4 41.2994 44.31 41.2994 42.91C41.2994 41.51 40.8294 40.43 39.8894 39.67C38.9694 38.89 37.7894 38.5 36.3494 38.5H30.6494L31.3994 28H42.6494V29.98H33.2594L32.8094 36.46H36.3494Z" fill="black"/>
<defs>
<linearGradient id="paint0_linear_3_31" x1="37.5" y1="0" x2="37.5" y2="75" gradientUnits="userSpaceOnUse">
<stop stop-color="#FFD154"/>
<stop offset="0.994792" stop-color="#FFC936"/>
</linearGradient>
</defs>
</svg>
